<?xml version="1.0" encoding="UTF-8" standalone="no"?>
<!-- Created with Inkscape (http://www.inkscape.org/) -->

<svg
   width="200mm"
   height="150mm"
   viewBox="0 0 200 150"
   version="1.1"
   id="svg5"
   inkscape:version="1.1.2 (0a00cf5339, 2022-02-04)"
   sodipodi:docname="Solenoid with 3 loops.svg"
   inkscape:export-filename="/home/yutyo/Resimler/Solenoid with 3 loops.png"
   inkscape:export-xdpi="169.33333"
   inkscape:export-ydpi="169.33333"
   xmlns:inkscape="http://www.inkscape.org/namespaces/inkscape"
   xmlns:sodipodi="http://sodipodi.sourceforge.net/DTD/sodipodi-0.dtd"
   xmlns="http://www.w3.org/2000/svg"
   xmlns:svg="http://www.w3.org/2000/svg">
  <sodipodi:namedview
     id="namedview7"
     pagecolor="#ffffff"
     bordercolor="#666666"
     borderopacity="1.0"
     inkscape:pageshadow="2"
     inkscape:pageopacity="0.0"
     inkscape:pagecheckerboard="0"
     inkscape:document-units="mm"
     showgrid="false"
     inkscape:zoom="0.50476921"
     inkscape:cx="368.48523"
     inkscape:cy="308.06158"
     inkscape:window-width="1366"
     inkscape:window-height="692"
     inkscape:window-x="0"
     inkscape:window-y="0"
     inkscape:window-maximized="1"
     inkscape:current-layer="layer1" />
  <defs
     id="defs2">
    <rect
       x="-12.684332"
       y="-70.881925"
       width="804.28155"
       height="97.697921"
       id="rect14295" />
    <rect
       x="75.309074"
       y="104.11839"
       width="247.19212"
       height="109.58444"
       id="rect5249" />
    <rect
       x="75.309074"
       y="104.11839"
       width="247.19212"
       height="109.58444"
       id="rect5249-9" />
    <rect
       x="75.309074"
       y="104.11839"
       width="247.19212"
       height="109.58444"
       id="rect5249-9-7" />
    <rect
       x="75.309074"
       y="104.11839"
       width="247.19212"
       height="109.58444"
       id="rect5249-9-7-7" />
    <rect
       x="75.309074"
       y="104.11839"
       width="247.19212"
       height="109.58444"
       id="rect5249-9-7-7-6" />
    <rect
       x="75.309074"
       y="104.11839"
       width="247.19212"
       height="109.58444"
       id="rect5249-9-7-7-6-6" />
    <rect
       x="75.309074"
       y="104.11839"
       width="247.19212"
       height="109.58444"
       id="rect5249-9-7-7-6-6-9" />
  </defs>
  <g
     inkscape:label="Katman 1"
     inkscape:groupmode="layer"
     id="layer1">
    <rect
       style="display:inline;fill:#ffffff;stroke:none;stroke-width:1;stroke-linecap:square;stroke-linejoin:miter;stroke-miterlimit:4;stroke-dasharray:none;stroke-dashoffset:0;stroke-opacity:1;paint-order:stroke fill markers"
       id="rect11480"
       width="203.64043"
       height="153.43536"
       x="-1.8202133"
       y="-1.7176819" />
    <text
       xml:space="preserve"
       transform="matrix(0.08577159,0,0,0.08577159,-1.0439134,0.61289304)"
       id="text14293"
       style="font-style:normal;font-weight:normal;font-size:40px;line-height:1.25;font-family:sans-serif;white-space:pre;shape-inside:url(#rect14295);fill:#000000;fill-opacity:1;stroke:none"><tspan
         x="-12.683594"
         y="-35.492188"
         id="tspan1638">by Tan Siret Akıncı (Comrade-yutyo)</tspan></text>
    <path
       style="fill:#000000;stroke-width:0.14957"
       d="m 59.533891,142.22692 c -20.32659,-0.84524 -35.31498,-4.7805 -37.8544,-9.93879 -0.44845,-0.91093 -0.46412,-1.00406 -0.35659,-2.11967 0.10537,-1.0934 0.14741,-103.208852 0.0437,-106.058843 -0.0464,-1.274043 -0.0317,-1.341557 0.47563,-2.190722 1.58139,-2.646743 6.50321,-5.011094 14.02309,-6.736427 21.96462,-5.03947 57.83113,-3.54412 71.477209,2.980042 3.77346,1.804087 5.54167,3.671494 5.45967,5.765972 -0.0177,0.452439 -0.0644,9.925854 -0.10368,21.051999 l -0.0714,20.229385 h 1.5726 1.5726 v 0.448714 0.448713 h -2.24356 -2.24355 V 46.795315 27.483349 l -0.57795,0.52215 c -4.14396,3.743806 -17.062449,6.759159 -33.110119,7.728318 l -2.35311,0.142111 -4.59646,3.613894 -4.59645,3.613894 -0.34124,-0.426449 c -0.18769,-0.234542 -0.34159,-0.470461 -0.342,-0.524247 -4.5e-4,-0.0538 1.71156,-1.433583 3.80438,-3.066195 2.09281,-1.6326 3.80903,-3.002029 3.81382,-3.043161 0.005,-0.04104 -3.07047,-0.08247 -6.83392,-0.09194 -7.12548,-0.01781 -11.37078,-0.221824 -17.0134,-0.817891 -12.20858,-1.289652 -21.29714,-3.742101 -25.41305,-6.857423 l -0.9861,-0.746374 v 49.738584 49.7386 l 0.41132,-0.31591 c 1.0094,-0.77523 2.12759,-1.49873 2.98243,-1.92974 10.69525,-5.3925 37.36486,-7.74465 59.69023,-5.26444 8.19054,0.90992 15.159029,2.39851 19.777949,4.22492 2.18747,0.86496 4.30883,2.04641 5.27236,2.9363 l 0.41132,0.37987 V 110.78188 94.52553 h 0.67064 0.67065 l 0.072,17.61189 c 0.0397,9.68655 0.0864,17.98209 0.10394,18.43454 0.0803,2.07071 -1.9664,4.23793 -5.5574,5.88465 -9.208399,4.22272 -28.581369,6.56568 -47.711179,5.7702 z m 16.82666,-1.34165 c 13.30669,-0.68592 24.783199,-2.82946 30.672429,-5.72884 3.14702,-1.54935 4.58588,-3.03406 4.58588,-4.73201 0,-0.91703 -0.41722,-1.69934 -1.40252,-2.62977 -3.87668,-3.66073 -15.081399,-6.45117 -30.640029,-7.63058 -4.21005,-0.31914 -16.42315,-0.44956 -20.94527,-0.22367 -14.2305,0.71085 -25.34388,2.76284 -31.62868,5.83997 -4.70605,2.30415 -5.79828,4.87974 -3.11091,7.33584 4.76543,4.35534 20.00629,7.47457 39.00778,7.98342 2.68926,0.072 10.23756,-0.0481 13.46132,-0.21436 z m -4.99096,-106.169663 2.1884,-0.09295 -4.04949,-2.778802 c -2.22722,-1.528337 -4.0733,-2.850243 -4.10241,-2.937571 -0.0291,-0.08727 0.10167,-0.336204 0.2906,-0.553091 l 0.34351,-0.394347 4.84557,3.319429 4.84557,3.319453 2.8573,-0.181084 c 12.24577,-0.776078 22.582419,-2.801585 28.284239,-5.542425 3.27668,-1.575063 4.74598,-3.059351 4.74598,-4.794345 0,-3.430137 -6.88987,-6.643042 -18.581229,-8.664836 -4.21242,-0.728467 -8.26362,-1.196364 -14.43353,-1.667051 -3.35753,-0.256125 -15.82474,-0.351889 -19.82159,-0.152253 -14.43387,0.720978 -25.46505,2.748127 -31.78015,5.840085 -2.92148,1.430413 -4.37587,2.863832 -4.52114,4.455987 -0.49202,5.392672 16.259,10.078145 38.5976,10.796243 4.32109,0.138904 7.46696,0.147315 10.29077,0.02753 z m 4.38457,-6.042891 c -0.0404,-0.105324 -0.0551,-1.468312 -0.0327,-3.028789 l 0.0408,-2.837235 0.4861,-0.04685 0.48611,-0.04685 v 3.075679 3.075668 h -0.4534 c -0.24938,0 -0.48649,-0.08625 -0.52692,-0.191579 z m -0.008,-7.199529 c -0.0447,-0.116438 -0.0594,-0.402493 -0.0327,-0.635671 0.0408,-0.356713 0.12564,-0.431387 0.53465,-0.470814 0.48426,-0.04673 0.4861,-0.0442 0.4861,0.635671 0,0.660233 -0.0148,0.682536 -0.4534,0.682536 -0.25302,0 -0.48931,-0.09358 -0.53466,-0.211722 z m 96.488669,91.838093 c -0.79367,-0.35034 -1.04701,-0.77093 -1.04701,-1.73828 0,-0.72077 0.064,-0.93848 0.37394,-1.27153 0.51074,-0.54887 0.91104,-0.68139 2.40331,-0.79555 l 1.28154,-0.0981 -0.12617,-0.48423 c -0.22795,-0.87497 -1.56983,-1.20295 -2.94161,-0.71896 l -0.61707,0.21772 v -0.43047 c 0,-0.36324 0.0875,-0.46079 0.56087,-0.62448 0.89,-0.30783 2.50011,-0.24648 2.98246,0.11366 0.95211,0.71085 1.01437,0.9157 1.06625,3.50766 l 0.0476,2.38274 h -0.45901 c -0.41626,0 -0.45899,-0.0443 -0.45899,-0.4767 v -0.47669 l -0.42259,0.40485 c -0.69515,0.66601 -1.785,0.86733 -2.64361,0.48832 z m 2.13633,-0.92108 c 0.42763,-0.29953 0.73798,-0.90359 0.80341,-1.56381 l 0.0516,-0.52109 -1.17128,0.0282 c -1.50119,0.036 -1.8949,0.26398 -1.8949,1.09709 0,0.80996 0.39758,1.19311 1.23805,1.19311 0.35189,0 0.78977,-0.10507 0.97307,-0.23344 z m -73.03265,0.65716 c -0.16452,-0.091 -0.45058,-0.30258 -0.63567,-0.47022 l -0.33653,-0.30479 v 0.4 c 0,0.34473 -0.062,0.39999 -0.448709,0.39999 h -0.44842 v -4.18796 -4.18796 h 0.44871 0.448709 v 1.58598 1.58598 l 0.52869,-0.46421 c 0.46493,-0.4082 0.63629,-0.46421 1.4205,-0.46421 0.81489,0 0.9435,0.0466 1.49169,0.54198 1.46771,1.32599 1.30962,4.32382 -0.28463,5.39766 -0.55796,0.37581 -1.65544,0.46012 -2.18405,0.16776 z m 1.35574,-0.79202 c 1.29923,-0.54285 1.50856,-3.20783 0.32987,-4.19963 -0.39088,-0.32891 -0.57707,-0.38545 -1.05731,-0.32103 -0.77699,0.10419 -1.24103,0.5739 -1.45719,1.47491 -0.31854,1.3279 0.10255,2.67662 0.95075,3.04556 0.60263,0.26209 0.60704,0.26209 1.23388,1.4e-4 z m -42.939039,-2.68197 c -1.22791,-0.53504 -1.90393,-2.13562 -1.57374,-3.72609 0.20385,-0.98196 0.68132,-1.62974 1.51459,-2.05484 0.64509,-0.32911 1.90648,-0.39005 2.6571,-0.12839 0.38759,0.13513 0.47102,0.24393 0.47102,0.61428 0,0.37013 -0.0465,0.4309 -0.26174,0.342 -1.12662,-0.46523 -2.26256,-0.3606 -2.83736,0.26137 -0.82181,0.88922 -0.81187,2.66432 0.0196,3.49577 0.61384,0.61384 1.32317,0.7554 2.32045,0.46305 l 0.75907,-0.22252 v 0.4177 c 0,0.33403 -0.0943,0.45058 -0.47102,0.5819 -0.63557,0.22156 -2.04295,0.19759 -2.59795,-0.0442 z M 49.167661,95.47716 c -0.0572,-0.05721 -0.10397,-0.294668 -0.10397,-0.527745 v -0.423772 h 2.02867 2.02867 l -0.0469,0.486083 -0.0469,0.48612 -1.87784,0.04155 c -1.03282,0.02298 -1.92463,-0.0051 -1.98181,-0.06239 z m 7.97283,-0.428028 v -0.523489 h 1.94441 1.94441 v 0.523489 0.523502 h -1.94439 -1.94441 z m 7.92722,0.0038 v -0.527846 h 2.02867 2.02869 l -0.0469,0.486108 -0.0469,0.486107 -1.98181,0.04168 -1.9818,0.04167 z m 8.02694,0.41944 c -0.0548,-0.05481 -0.0997,-0.290412 -0.0997,-0.523489 v -0.423797 h 1.03985 1.03986 l 0.0445,-0.934808 c 0.0445,-0.934759 0.0445,-0.934822 0.53063,-0.981687 l 0.4861,-0.04685 v 1.505188 1.505176 h -1.47077 c -0.80892,0 -1.51564,-0.04483 -1.57048,-0.09977 z m 26.07507,-0.41944 v -0.527846 h 2.028679 2.02868 l -0.0469,0.486108 -0.0469,0.486107 -1.98181,0.04168 -1.981799,0.04167 z m 8.031199,0.423683 c -0.0572,-0.05721 -0.10394,-0.294655 -0.10394,-0.527732 v -0.423797 h 2.02866 2.02868 l -0.0468,0.486108 -0.0469,0.486107 -1.87786,0.04155 c -1.0328,0.02298 -1.92461,-0.0051 -1.98179,-0.06239 z m 7.97283,-0.428015 v -0.523514 h 1.94439 1.94442 v 0.523514 0.523489 h -1.94442 -1.94439 z m 7.92722,0.0051 v -0.52873 h 1.04699 1.04698 v -0.981687 -0.981687 l 0.48611,0.04685 0.48611,0.04685 v 1.420916 1.420929 l -1.53309,0.04256 -1.5331,0.04256 z m 29.11635,0.418556 c -0.0549,-0.05494 -0.0998,-0.660612 -0.0998,-1.346141 v -1.246412 h 0.52351 0.52349 v 0.82264 0.822627 h 1.12177 1.12177 v 0.523514 0.523476 h -1.54555 c -0.85006,0 -1.59043,-0.04483 -1.64526,-0.09977 z m 5.28481,-0.423785 v -0.523514 h 1.94441 1.94441 v 0.523514 0.523489 h -1.94441 -1.94441 z m 5.9828,0 v -0.523514 h 1.94442 1.94441 v 0.523514 0.523489 h -1.94441 -1.94442 z m 5.9828,0 v -0.523514 h 1.94443 1.94441 v 0.523514 0.523489 h -1.94441 -1.94443 z m 5.98282,0 v -0.523514 h 1.94442 1.94441 v 0.523514 0.523489 h -1.94441 -1.94442 z m 5.49671,-0.482129 0.4861,-0.06037 v -1.934933 -1.934934 h 0.52351 0.52348 v 2.019181 2.019205 l -1.00959,-0.02399 c -0.55529,-0.01313 -0.79086,-0.05102 -0.5235,-0.08423 z M 45.873121,92.78023 c -0.0548,-0.05494 -0.0997,-0.963476 -0.0997,-2.01918 v -1.919488 h 0.52349 0.5235 v 2.019193 2.019205 h -0.42378 c -0.23308,0 -0.46866,-0.04483 -0.52349,-0.09977 z m 50.00632,-1.919475 v -2.019193 h 0.4487 0.44873 v 2.019193 2.019205 h -0.44873 -0.4487 z m 56.238409,-2.019193 v -1.944418 h 0.52352 0.52348 v 1.944418 1.944417 h -0.52348 -0.52352 z M 75.154281,88.496316 c -0.0413,-0.107598 -0.056,-0.99943 -0.0327,-1.981799 l 0.0424,-1.786141 0.4861,-0.04685 0.48611,-0.04685 v 2.028677 2.028665 h -0.45341 c -0.24937,0 -0.48719,-0.08802 -0.52849,-0.195671 z M 125.1952,86.682265 v -2.028664 h 0.52785 0.52783 l -0.0417,1.981799 -0.0418,1.981799 -0.4861,0.04685 -0.48611,0.04685 z m 56.33816,1.910004 c -0.0549,-0.05494 -0.0998,-0.963476 -0.0998,-2.019205 v -1.919463 h 0.5235 0.52349 v 2.01918 2.019205 h -0.42377 c -0.23309,0 -0.46867,-0.04483 -0.52349,-0.09977 z M 45.773431,82.859163 v -1.944418 h 0.52349 0.5235 v 1.944418 1.944392 h -0.5235 -0.52349 z m 50.10603,0 v -1.944418 h 0.44871 0.44872 v 1.944418 1.944392 h -0.44872 -0.44871 z m 56.238419,0 v -1.944418 h 0.52351 0.52349 v 1.944418 1.944392 h -0.52349 -0.52351 z m -74.336409,1.156204 c 0,-0.41944 0.20365,-0.690909 1.43053,-1.907024 1.6513,-1.63678 2.42195,-2.619768 2.548,-3.250008 0.10315,-0.515722 -0.24349,-1.295386 -0.6797,-1.528842 -0.45948,-0.245908 -1.58477,-0.178925 -2.4372,0.145055 -0.43276,0.16449 -0.80794,0.2991 -0.83372,0.299138 -0.0258,5e-5 -0.0258,-0.218201 0,-0.484996 0.063,-0.652669 0.61103,-0.901065 2.14086,-0.97046 1.03764,-0.04698 1.27602,-0.0088 1.79484,0.291561 1.09053,0.630404 1.41781,1.916116 0.78524,3.08481 -0.18509,0.341975 -1.03126,1.362155 -1.88038,2.267084 l -1.54385,1.645317 h 1.88038 1.88038 v 0.448714 0.448713 h -2.54269 -2.54269 z m -39.93527,-0.109239 v -0.448714 h 0.89742 0.89743 v -3.084899 -3.084874 l -0.41132,0.08095 c -0.22623,0.04445 -0.66861,0.128662 -0.98308,0.186944 l -0.57176,0.105956 0.0483,-0.49952 c 0.0465,-0.481106 0.0813,-0.506351 0.94569,-0.685226 0.49358,-0.102166 1.14982,-0.188648 1.45831,-0.192235 l 0.56088,-0.0063 v 3.589697 3.589684 h 0.89743 0.89742 v 0.448714 0.448701 h -2.31834 -2.31834 z M 181.53338,82.609845 c -0.0549,-0.05481 -0.0998,-0.963476 -0.0998,-2.019205 v -1.919476 h 0.5235 0.52349 v 2.019193 2.019205 h -0.42378 c -0.23309,0 -0.46866,-0.04483 -0.52348,-0.09977 z M 75.089201,78.671164 v -1.944418 h 0.5235 0.52349 v 1.944418 1.944405 h -0.52349 -0.5235 z m 50.106029,0 v -1.944418 h 0.5235 0.5235 v 1.944418 1.944405 h -0.5235 -0.5235 z m 26.92265,-1.794855 v -1.944393 h 0.52351 0.52349 v 1.944393 1.94443 h -0.52349 -0.52351 z M 45.806481,74.89451 l 0.0418,-1.981799 0.48611,-0.04685 0.4861,-0.04685 v 2.028665 2.028677 h -0.52784 -0.52784 z m 50.07298,-0.03738 v -2.019193 h 0.44871 0.44872 v 2.019193 2.019193 h -0.44872 -0.44871 z m 85.653919,1.769913 c -0.0549,-0.05494 -0.0998,-0.963476 -0.0998,-2.019193 v -1.919489 h 0.5235 0.52349 v 2.019205 2.019193 h -0.42378 c -0.23309,0 -0.46866,-0.04483 -0.52348,-0.09977 z m -29.4155,-5.733512 v -1.944418 h 0.52351 0.52349 v 1.944418 1.944418 h -0.52349 -0.52351 z m -76.995629,-0.186957 0.0418,-1.981799 0.4861,-0.04685 0.4861,-0.04685 v 2.028689 2.028665 h -0.52784 -0.52783 z m 50.072979,-0.04685 v -2.028689 l 0.48611,0.04685 0.48611,0.04685 0.0417,1.981799 0.0418,1.981799 h -0.52783 -0.52785 z m 56.33815,-0.01541 c -0.0549,-0.05494 -0.0998,-0.963476 -0.0998,-2.019192 v -1.919489 h 0.5235 0.52349 v 2.019205 2.019181 h -0.42378 c -0.23309,0 -0.46866,-0.04483 -0.52348,-0.09977 z M 45.873141,68.84951 c -0.0548,-0.05494 -0.0997,-0.896177 -0.0997,-1.86963 v -1.769913 h 2.0192 2.0192 v 0.448714 0.448713 h -1.49571 -1.4957 v 1.420917 1.420903 h -0.42379 c -0.23307,0 -0.46865,-0.04483 -0.52349,-0.09977 z m 50.00632,-1.769926 v -1.869617 h 1.94442 1.94441 v 0.443296 0.443296 l -1.4583,0.04281 -1.45832,0.04281 -0.0429,1.383523 -0.0429,1.383522 h -0.44309 -0.4431 z M 152.11788,66.18217 v -0.972203 h 2.0192 2.01919 v 0.448714 0.448713 h -1.4957 -1.49569 v 0.523489 c 0,0.49856 -0.025,0.523489 -0.52349,0.523489 h -0.52351 z M 53.850221,65.658681 v -0.448714 h 1.94442 1.94441 v 0.448714 0.448713 h -1.94441 -1.94442 z m 7.92723,0 v -0.448714 h 1.94441 1.94441 v 0.448714 0.448713 h -1.94441 -1.94441 z m 7.92722,0 v -0.448714 h 2.0192 2.0192 v 0.448714 0.448713 h -2.0192 -2.0192 z m 34.102019,0 v -0.448714 h 2.0192 2.01921 v 0.448714 0.448713 h -2.01921 -2.0192 z m 16.00401,0 v -0.448714 h 1.94442 1.94442 v 0.448714 0.448713 h -1.94442 -1.94442 z m 38.29,0 v -0.448714 h 2.01918 2.01921 v 0.448714 0.448713 h -2.01921 -2.01918 z m 5.98281,0 v -0.448714 h 2.01919 2.01919 v 0.448714 0.448713 h -2.01919 -2.01919 z m 5.9828,0 v -0.448714 h 2.01921 2.01919 v 0.448714 0.448713 h -2.01919 -2.01921 z m 5.9828,0 v -0.448714 h 2.01921 2.01921 v 0.448714 0.448713 h -2.01921 -2.01921 z m -42.21538,-45.254257 -0.0381,-13.2462159 -2.31085,2.8510759 c -1.27098,1.568093 -2.34787,2.848665 -2.39312,2.84571 -0.0452,-0.0025 -0.27728,-0.164831 -0.51562,-0.359719 -0.43202,-0.353265 -0.43249,-0.355437 -0.14958,-0.71095 0.15608,-0.196138 1.58957,-1.9567819 3.18555,-3.9125529 2.32916,-2.854271 2.93727,-3.517195 3.08177,-3.359474 0.099,0.108103 1.53724,1.864478 3.19604,3.903119 l 3.01602,3.7066019 -0.41412,0.364454 c -0.22777,0.200444 -0.45894,0.366576 -0.51373,0.369165 -0.0548,0.0025 -1.13167,-1.268272 -2.39311,-2.82414 l -2.29354,-2.8288749 -0.0381,13.2240029 -0.0381,13.22402 h -0.67146 -0.67144 z m 9.16036,-4.756749 c 0,-0.234441 0.84458,-1.39826 2.50531,-3.452258 1.37791,-1.704231 2.52773,-3.1604319 2.55515,-3.2360149 0.029,-0.07994 -0.9905,-0.137426 -2.44044,-0.137426 h -2.49031 l 0.0472,-0.411333 0.0474,-0.411295 h 3.14098 3.14097 l 0.0398,0.373914 c 0.0308,0.290071 -0.53095,1.078385 -2.50499,3.5148969 l -2.54478,3.140983 2.54239,0.04092 2.54239,0.04092 v 0.445177 0.44519 h -3.29054 -3.29055 z"
       id="path1250" />
  </g>
</svg>
